<svg width="6" height="8" viewBox="0 0 6 8" fill="none" xmlns="http://www.w3.org/2000/svg">
<path d="M2.99998 7.89998C2.45867 7.43321 1.95693 6.9215 1.49999 6.37019C0.814282 5.54226 3.7871e-07 4.30925 3.7871e-07 3.13429C-0.000607402 1.90715 0.730388 0.800576 1.85188 0.330942C2.97337 -0.138691 4.26429 0.121184 5.12226 0.989301C5.68645 1.55711 6.0025 2.32949 5.99999 3.13429C5.99999 4.30925 5.18569 5.54226 4.49998 6.37019C4.04304 6.9215 3.5413 7.43321 2.99998 7.89998ZM2.99999 1.83456C2.54065 1.83456 2.1162 2.08229 1.88653 2.48443C1.65686 2.88656 1.65686 3.38202 1.88653 3.78416C2.1162 4.1863 2.54065 4.43402 2.99999 4.43402C3.71006 4.43402 4.28569 3.85211 4.28569 3.13429C4.28569 2.41647 3.71006 1.83456 2.99999 1.83456Z" fill="#27794D"/>
</svg>
