<svg width="10" height="13" viewBox="0 0 10 13" fill="none" xmlns="http://www.w3.org/2000/svg">
<path d="M4.99997 13C4.09779 12.2221 3.26155 11.3692 2.49999 10.4504C1.35714 9.07048 6.31184e-07 7.01546 6.31184e-07 5.05719C-0.00101234 3.01195 1.21731 1.16767 3.08646 0.384944C4.95561 -0.397778 7.10715 0.0353475 8.5371 1.48221C9.47742 2.42856 10.0042 3.71586 9.99998 5.05719C9.99998 7.01546 8.64281 9.07048 7.49996 10.4504C6.73841 11.3692 5.90216 12.2221 4.99997 13ZM4.99998 2.89097C4.23441 2.89097 3.527 3.30385 3.14422 3.97408C2.76143 4.64431 2.76143 5.47007 3.14422 6.1403C3.527 6.81053 4.23441 7.22341 4.99998 7.22341C6.18344 7.22341 7.14282 6.25356 7.14282 5.05719C7.14282 3.86082 6.18344 2.89097 4.99998 2.89097Z" fill="#DE4B65"/>
</svg>
