<svg xmlns="http://www.w3.org/2000/svg" width="150" height="97" viewBox="0 0 150 97" fill="none">
  <g clip-path="url(#clip0_4005_5232)">
    <rect width="150" height="97" fill="#F0F5F5"/>
    <path d="M91.724 50.1888L91.9576 50.5191L92.3294 50.3596C93.5902 49.8185 95.0802 49.5 96.4531 49.5C102.018 49.5 106.5 53.7866 106.5 59C106.5 64.2134 102.018 68.5 96.4531 68.5C90.9314 68.5 86.4062 64.0828 86.4062 59C86.4062 56.4747 87.5209 53.9582 89.5518 52.1328L89.8827 51.8354L89.6258 51.4722L88.1366 49.3666L87.8143 48.9108L87.3966 49.2813C85.0414 51.3703 83.2961 54.1139 82.6241 57.2984L82.6241 57.2985L82.3752 58.4785L82.3751 58.4788C81.9707 60.4029 80.1587 61.8333 78.039 61.8333H67.465H67.1184L66.9968 62.158C65.6017 65.8832 61.8448 68.5 57.5469 68.5C51.9817 68.5 47.5 64.2134 47.5 59C47.5 53.8907 51.8134 49.6954 57.2296 49.5318L58.1576 49.5037L57.6235 48.7444L55.2213 45.3286L55.0906 45.1428L54.8647 45.119C50.707 44.681 47.5 41.3357 47.5 37.3333C47.5 36.713 48.0369 36.1667 48.7578 36.1667H57.6121C59.1044 36.1667 60.4799 36.8695 61.2971 38.0326L61.2972 38.0327L62.1795 39.2876L62.3288 39.5H62.5885H77.3483H77.6079L77.7573 39.2876L79.5793 36.6965L79.5793 36.6965C79.8078 36.3716 80.2013 36.1667 80.6328 36.1667H85.9062H86.4062V35.6667V32.3333V31.8333H85.9062H84.1484C83.4276 31.8333 82.8906 31.287 82.8906 30.6667C82.8906 30.0463 83.4276 29.5 84.1484 29.5H87.6641C94.1974 29.5 99.4688 34.5352 99.4688 40.6667V44C99.4688 44.6203 98.9318 45.1667 98.2109 45.1667C95.3523 45.1667 92.6398 45.9035 90.2879 47.1943L89.7967 47.4639L90.1203 47.9214L91.724 50.1888ZM64.0498 62.5838L64.5173 61.8222H63.6236H57.5469C55.8537 61.8222 54.5313 60.538 54.5313 59C54.5313 57.4599 55.8559 56.1667 57.5469 56.1667H64.5129V55.6667V55.1667C63.0206 55.1667 61.6451 54.4638 60.8279 53.3008L60.8278 53.3006L60.2135 52.427L60.1174 52.2903L59.9585 52.2389C59.1956 51.992 58.3914 51.8333 57.5469 51.8333C53.4183 51.8333 50.0156 55.0223 50.0156 59C50.0156 62.9777 53.4183 66.1667 57.5469 66.1667C60.2745 66.1667 62.7261 64.7401 64.0498 62.5838ZM91.6344 54.3121L91.28 53.8109L90.8609 54.2594C89.5413 55.6714 88.9219 57.3294 88.9219 59C88.9219 62.9356 92.3948 66.1667 96.4531 66.1667C100.582 66.1667 103.984 62.9777 103.984 59C103.984 55.0223 100.582 51.8333 96.4531 51.8333C95.4889 51.8333 94.8675 51.977 93.9859 52.2694L93.3455 52.4819L93.7352 53.0327L97.504 58.3611L97.5042 58.3613C97.8737 58.8829 97.7375 59.5967 97.1634 59.9615L97.1622 59.9623C96.5738 60.3384 95.7797 60.1752 95.4027 59.6399L95.4021 59.6391L91.6344 54.3121Z" stroke="#004448"/>
  </g>
  <defs>
    <clipPath id="clip0_4005_5232">
      <rect width="150" height="97" rx="10" fill="white"/>
    </clipPath>
  </defs>
</svg>