<svg xmlns="http://www.w3.org/2000/svg" width="150" height="97" viewBox="0 0 150 97" fill="none">
  <g clip-path="url(#clip0_4005_5233)">
    <rect width="150" height="97" fill="#F0F5F5"/>
    <path d="M114.965 54.7779L114.144 60.3741C113.959 61.6406 113.081 62.5629 112.06 62.5629H107.916C108.029 62.0501 108.121 61.5251 108.174 60.9848C108.226 60.4742 108.252 60.0094 108.252 59.5692C108.252 53.3725 104.253 48.331 99.3395 48.331C94.4246 48.331 90.4252 53.3725 90.4252 59.5692C90.4252 59.8909 90.4422 60.2086 90.4633 60.5273C90.5102 61.2269 90.6107 61.9061 90.7557 62.5618H54.507C54.6205 62.0491 54.712 61.5251 54.7663 60.9859C54.8181 60.4731 54.8432 60.0104 54.8432 59.5692C54.8432 53.3735 50.8446 48.331 45.9305 48.331C41.0165 48.331 37.017 53.3735 37.017 59.5692C37.017 59.8899 37.034 60.2086 37.0543 60.5273C37.1021 61.2279 37.2025 61.9071 37.3475 62.5639H36.296C36.296 62.5639 34.5041 55.3009 35.1343 52.0008C35.6261 49.428 36.8842 48.381 36.8842 48.381C36.8842 48.381 36.7659 44.6091 38.3788 40.7074C38.7206 39.8791 41.3794 35.3176 45.3821 30.7694C47.2113 28.6899 48.65 28.0413 51.1127 28.0332C58.0877 28.0097 74.1228 27.9668 77.9108 28.0444C80.431 28.0965 81.8795 28.5908 84.0691 30.2363C84.2863 30.3987 84.3989 30.7133 84.3357 31.0207C84.2725 31.3281 84.0521 31.5426 83.8002 31.5426H83.6576L90.733 40.2754C90.733 40.2754 93.5279 40.2928 94.4595 40.3408C99.09 40.5818 107.418 41.4439 112.467 46.2964C113.148 46.9511 113.594 47.9224 113.702 48.9928C113.843 50.385 113.864 51.9252 113.864 51.9252C114.688 52.4696 115.133 53.6248 114.965 54.7779ZM56.8547 31.5416H49.5444C48.7505 31.5416 47.9817 31.8736 47.3547 32.4894C45.6429 34.1727 44.3022 36.0295 43.3042 37.6658C43.1017 37.9977 43.066 38.4451 43.2118 38.821C43.356 39.1978 43.6566 39.4389 43.9887 39.445L56.8539 39.6738L56.8547 31.5416ZM60.7488 31.5416H60.2531V39.7341L60.7488 39.7433V31.5416ZM87.0398 40.208L80.017 31.5406H64.148V39.8015L80.9746 40.0997C80.9657 39.9945 80.9535 39.8924 80.9535 39.7841C80.9535 38.3644 81.7587 37.2133 82.7519 37.2133C83.7467 37.2133 84.5512 38.3644 84.5512 39.7841C84.5512 39.9138 84.5374 40.0384 84.5252 40.163L87.0398 40.208Z" stroke="#004448"/>
    <path d="M52.3601 59.1111C52.3601 63.8517 49.2889 67.5 45.7159 67.5C42.1429 67.5 39.0717 63.8517 39.0717 59.1111C39.0717 54.3705 42.1429 50.7222 45.7159 50.7222C49.2889 50.7222 52.3601 54.3705 52.3601 59.1111Z" stroke="#004448"/>
    <path d="M105.941 59.1111C105.941 63.8517 102.87 67.5 99.2971 67.5C95.7241 67.5 92.653 63.8517 92.653 59.1111C92.653 54.3705 95.7241 50.7222 99.2971 50.7222C102.87 50.7222 105.941 54.3705 105.941 59.1111Z" stroke="#004448"/>
  </g>
  <defs>
    <clipPath id="clip0_4005_5233">
      <rect width="150" height="97" rx="10" fill="white"/>
    </clipPath>
  </defs>
</svg>