<svg width="32" height="32" viewBox="0 0 32 32" fill="none" xmlns="http://www.w3.org/2000/svg"> <rect width="32" height="32" rx="5" fill="#F0F5F5"/> <path d="M13.9999 17.5C14.4434 17.4999 14.8744 17.6472 15.225 17.9187C15.5756 18.1902 15.8261 18.5706 15.9369 19H21.4999C21.6249 18.9998 21.7454 19.0463 21.8377 19.1305C21.9301 19.2147 21.9875 19.3304 21.9988 19.4548C22.0101 19.5793 21.9744 19.7034 21.8987 19.8028C21.823 19.9023 21.7129 19.9697 21.5899 19.992L21.4999 20L15.9369 20.001C15.8264 20.4308 15.5762 20.8116 15.2255 21.0835C14.8748 21.3554 14.4437 21.503 13.9999 21.503C13.5562 21.503 13.1251 21.3554 12.7744 21.0835C12.4237 20.8116 12.1734 20.4308 12.0629 20.001L10.4999 20C10.375 20.0002 10.2545 19.9537 10.1622 19.8695C10.0698 19.7853 10.0124 19.6696 10.0011 19.5452C9.98978 19.4207 10.0255 19.2966 10.1012 19.1972C10.1768 19.0977 10.287 19.0303 10.4099 19.008L10.4999 19H12.0629C12.1738 18.5706 12.4243 18.1902 12.7749 17.9187C13.1255 17.6472 13.5565 17.4999 13.9999 17.5ZM13.9999 18.5C13.7347 18.5 13.4804 18.6054 13.2928 18.7929C13.1053 18.9804 12.9999 19.2348 12.9999 19.5C12.9999 19.7652 13.1053 20.0196 13.2928 20.2071C13.4804 20.3946 13.7347 20.5 13.9999 20.5C14.2652 20.5 14.5195 20.3946 14.7071 20.2071C14.8946 20.0196 14.9999 19.7652 14.9999 19.5C14.9999 19.2348 14.8946 18.9804 14.7071 18.7929C14.5195 18.6054 14.2652 18.5 13.9999 18.5ZM17.9999 10.5C18.4434 10.4999 18.8744 10.6472 19.225 10.9187C19.5756 11.1902 19.8261 11.5706 19.9369 12H21.4999C21.6249 11.9998 21.7454 12.0463 21.8377 12.1305C21.9301 12.2147 21.9875 12.3304 21.9988 12.4548C22.0101 12.5793 21.9744 12.7034 21.8987 12.8028C21.823 12.9023 21.7129 12.9697 21.5899 12.992L21.4999 13L19.9369 13.001C19.8264 13.4308 19.5762 13.8116 19.2255 14.0835C18.8748 14.3554 18.4437 14.503 17.9999 14.503C17.5562 14.503 17.1251 14.3554 16.7744 14.0835C16.4237 13.8116 16.1734 13.4308 16.0629 13.001L10.4999 13C10.375 13.0002 10.2545 12.9537 10.1622 12.8695C10.0698 12.7853 10.0124 12.6696 10.0011 12.5452C9.98978 12.4207 10.0255 12.2966 10.1012 12.1972C10.1768 12.0977 10.287 12.0303 10.4099 12.008L10.4999 12H16.0629C16.1738 11.5706 16.4243 11.1902 16.7749 10.9187C17.1255 10.6472 17.5565 10.4999 17.9999 10.5ZM17.9999 11.5C17.7347 11.5 17.4804 11.6054 17.2928 11.7929C17.1053 11.9804 16.9999 12.2348 16.9999 12.5C16.9999 12.7652 17.1053 13.0196 17.2928 13.2071C17.4804 13.3946 17.7347 13.5 17.9999 13.5C18.2652 13.5 18.5195 13.3946 18.7071 13.2071C18.8946 13.0196 18.9999 12.7652 18.9999 12.5C18.9999 12.2348 18.8946 11.9804 18.7071 11.7929C18.5195 11.6054 18.2652 11.5 17.9999 11.5Z" fill="black"/> </svg>