<svg width="32" height="32" viewBox="0 0 32 32" fill="none" xmlns="http://www.w3.org/2000/svg">
<rect width="32" height="32" rx="5" fill="#F7F7F7"/>
<path d="M20.6106 16.9613L20.7756 17.2074L21.0456 17.0852C21.4678 16.8941 21.9673 16.7819 22.4237 16.7819C24.2795 16.7819 25.7896 18.292 25.7896 20.1478C25.7896 22.0036 24.2795 23.5138 22.4237 23.5138C20.5842 23.5138 19.0577 21.9561 19.0577 20.1478C19.0577 19.2512 19.4333 18.3582 20.1152 17.7118L20.3297 17.5084L20.1651 17.2629L19.6404 16.4805L19.4112 16.1386L19.1106 16.4198C18.2571 17.2183 17.6241 18.2675 17.3805 19.4852L17.3805 19.4853L17.2928 19.9237L17.2927 19.924C17.1645 20.5676 16.5928 21.0365 15.9359 21.0365H12.2104H11.9633L11.8806 21.2694C11.4106 22.5928 10.1491 23.5138 8.71595 23.5138C6.86015 23.5138 5.35 22.0036 5.35 20.1478C5.35 18.3301 6.80286 16.8512 8.61 16.7936L9.23942 16.7735L8.89005 16.2496L8.04368 14.9803L7.95321 14.8446L7.79113 14.8266C6.42036 14.6743 5.35 13.5074 5.35 12.0966C5.35 11.9476 5.4703 11.8273 5.61932 11.8273H8.73894C9.20254 11.8273 9.63271 12.0573 9.89011 12.4437L9.89017 12.4438L10.201 12.9101L10.3049 13.0659H10.4923H15.6925H15.8798L15.9837 12.9101L16.6257 11.9473L16.6257 11.9472C16.6756 11.8723 16.7598 11.8273 16.8497 11.8273H18.7077H19.0577V11.4773V10.2386V9.88865H18.7077H18.0884C17.9394 9.88865 17.8191 9.76835 17.8191 9.61932C17.8191 9.4703 17.9394 9.35 18.0884 9.35H19.327C21.524 9.35 23.3123 11.1383 23.3123 13.3353V14.5739C23.3123 14.7229 23.192 14.8432 23.043 14.8432C22.0022 14.8432 21.0154 15.1263 20.1609 15.6209L19.8373 15.8082L20.0456 16.1187L20.6106 16.9613ZM11.1594 21.5584L11.4656 21.0324H10.8569H8.71595C8.22361 21.0324 7.8273 20.6371 7.8273 20.1478C7.8273 19.657 8.22514 19.2592 8.71595 19.2592H11.1702V18.9092V18.5592C10.7066 18.5592 10.2765 18.3292 10.0191 17.9428L10.019 17.9427L9.80258 17.6181L9.73675 17.5193L9.62443 17.481C9.34143 17.3844 9.03793 17.3205 8.71595 17.3205C7.15638 17.3205 5.88865 18.5883 5.88865 20.1478C5.88865 21.7074 7.15638 22.9751 8.71595 22.9751C9.74632 22.9751 10.6655 22.407 11.1594 21.5584ZM20.8728 18.3182L20.6205 17.942L20.3201 18.281C19.8281 18.8362 19.5964 19.4899 19.5964 20.1478C19.5964 21.6922 20.8892 22.9751 22.4237 22.9751C23.9832 22.9751 25.251 21.7074 25.251 20.1478C25.251 18.5883 23.9832 17.3205 22.4237 17.3205C22.0572 17.3205 21.8172 17.3798 21.4943 17.4928L21.0671 17.6422L21.3192 18.0181L22.6471 19.9981L22.6472 19.9983C22.7298 20.1213 22.6971 20.2884 22.5735 20.3712L22.5727 20.3718C22.4502 20.4543 22.2823 20.4206 22.2006 20.2982L22.2002 20.2977L20.8728 18.3182Z" stroke="#006970" stroke-width="0.7"/>
</svg>
