<svg xmlns="http://www.w3.org/2000/svg" width="32" height="32" viewBox="0 0 32 32" fill="none">
<rect width="32" height="32" rx="5" fill="#2ECB70" fill-opacity="0.4"/>
<path fill-rule="evenodd" clip-rule="evenodd" d="M4.29802 3.954L3.10002 8.651C2.64809 8.74301 2.24185 8.98838 1.95009 9.34557C1.65833 9.70275 1.49898 10.1498 1.49902 10.611V13.5C1.49902 14.0304 1.70974 14.5391 2.08481 14.9142C2.45988 15.2893 2.96859 15.5 3.49902 15.5H16.499C17.0295 15.5 17.5382 15.2893 17.9132 14.9142C18.2883 14.5391 18.499 14.0304 18.499 13.5V10.611C18.4991 10.1498 18.3397 9.70275 18.048 9.34557C17.7562 8.98838 17.35 8.74301 16.898 8.651L15.701 3.954C15.611 3.60046 15.4259 3.27829 15.166 3.02236C14.906 2.76642 14.5809 2.58648 14.226 2.502C12.8418 2.17008 11.4235 2.0016 10 2C8.59002 2 7.18002 2.168 5.77202 2.502C5.41712 2.58648 5.09208 2.76642 4.83209 3.02236C4.5721 3.27829 4.38807 3.60046 4.29802 3.954ZM3.50002 9.611C3.61115 9.61114 3.71916 9.57425 3.80699 9.50616C3.89482 9.43807 3.95746 9.34266 3.98502 9.235L5.26702 4.2C5.31209 4.02317 5.40468 3.86204 5.53477 3.73407C5.66485 3.6061 5.82748 3.51616 6.00502 3.474C7.3136 3.16049 8.65441 3.0014 10 3C11.33 3 12.662 3.158 13.995 3.475C14.1724 3.51732 14.3348 3.60733 14.4647 3.73529C14.5946 3.86325 14.687 4.02429 14.732 4.201L16.014 9.235C16.0416 9.34266 16.1042 9.43807 16.1921 9.50616C16.2799 9.57425 16.3879 9.61114 16.499 9.611C16.7642 9.611 17.0186 9.71636 17.2061 9.90389C17.3937 10.0914 17.499 10.3458 17.499 10.611V13.5C17.499 13.7652 17.3937 14.0196 17.2061 14.2071C17.0186 14.3946 16.7642 14.5 16.499 14.5H3.49902C3.23381 14.5 2.97945 14.3946 2.79192 14.2071C2.60438 14.0196 2.49902 13.7652 2.49902 13.5V10.611C2.49902 10.3458 2.60438 10.0914 2.79192 9.90389C2.97945 9.71636 3.23481 9.611 3.50002 9.611Z" fill="black"/>
<path fill-rule="evenodd" clip-rule="evenodd" d="M5.5 16C5.5 15.6022 5.34196 15.2206 5.06066 14.9393C4.77936 14.658 4.39782 14.5 4 14.5C3.60218 14.5 3.22064 14.658 2.93934 14.9393C2.65804 15.2206 2.5 15.6022 2.5 16V17C2.5 17.3978 2.65804 17.7794 2.93934 18.0607C3.22064 18.342 3.60218 18.5 4 18.5C4.39782 18.5 4.77936 18.342 5.06066 18.0607C5.34196 17.7794 5.5 17.3978 5.5 17V16ZM3.5 16C3.5 15.8674 3.55268 15.7402 3.64645 15.6464C3.74021 15.5527 3.86739 15.5 4 15.5C4.13261 15.5 4.25979 15.5527 4.35355 15.6464C4.44732 15.7402 4.5 15.8674 4.5 16V17C4.5 17.1326 4.44732 17.2598 4.35355 17.3536C4.25979 17.4473 4.13261 17.5 4 17.5C3.86739 17.5 3.74021 17.4473 3.64645 17.3536C3.55268 17.2598 3.5 17.1326 3.5 17V16ZM17.5 16C17.5 15.6022 17.342 15.2206 17.0607 14.9393C16.7794 14.658 16.3978 14.5 16 14.5C15.6022 14.5 15.2206 14.658 14.9393 14.9393C14.658 15.2206 14.5 15.6022 14.5 16V17C14.5 17.3978 14.658 17.7794 14.9393 18.0607C15.2206 18.342 15.6022 18.5 16 18.5C16.3978 18.5 16.7794 18.342 17.0607 18.0607C17.342 17.7794 17.5 17.3978 17.5 17V16ZM15.5 16C15.5 15.8674 15.5527 15.7402 15.6464 15.6464C15.7402 15.5527 15.8674 15.5 16 15.5C16.1326 15.5 16.2598 15.5527 16.3536 15.6464C16.4473 15.7402 16.5 15.8674 16.5 16V17C16.5 17.1326 16.4473 17.2598 16.3536 17.3536C16.2598 17.4473 16.1326 17.5 16 17.5C15.8674 17.5 15.7402 17.4473 15.6464 17.3536C15.5527 17.2598 15.5 17.1326 15.5 17V16ZM15 13.5C15.3978 13.5 15.7794 13.342 16.0607 13.0607C16.342 12.7794 16.5 12.3978 16.5 12C16.5 11.6022 16.342 11.2206 16.0607 10.9393C15.7794 10.658 15.3978 10.5 15 10.5C14.6022 10.5 14.2206 10.658 13.9393 10.9393C13.658 11.2206 13.5 11.6022 13.5 12C13.5 12.3978 13.658 12.7794 13.9393 13.0607C14.2206 13.342 14.6022 13.5 15 13.5ZM15 11.5C15.1326 11.5 15.2598 11.5527 15.3536 11.6464C15.4473 11.7402 15.5 11.8674 15.5 12C15.5 12.1326 15.4473 12.2598 15.3536 12.3536C15.2598 12.4473 15.1326 12.5 15 12.5C14.8674 12.5 14.7402 12.4473 14.6464 12.3536C14.5527 12.2598 14.5 12.1326 14.5 12C14.5 11.8674 14.5527 11.7402 14.6464 11.6464C14.7402 11.5527 14.8674 11.5 15 11.5ZM5 13.5C5.39782 13.5 5.77936 13.342 6.06066 13.0607C6.34196 12.7794 6.5 12.3978 6.5 12C6.5 11.6022 6.34196 11.2206 6.06066 10.9393C5.77936 10.658 5.39782 10.5 5 10.5C4.60218 10.5 4.22064 10.658 3.93934 10.9393C3.65804 11.2206 3.5 11.6022 3.5 12C3.5 12.3978 3.65804 12.7794 3.93934 13.0607C4.22064 13.342 4.60218 13.5 5 13.5ZM5 11.5C5.13261 11.5 5.25979 11.5527 5.35355 11.6464C5.44732 11.7402 5.5 11.8674 5.5 12C5.5 12.1326 5.44732 12.2598 5.35355 12.3536C5.25979 12.4473 5.13261 12.5 5 12.5C4.86739 12.5 4.74021 12.4473 4.64645 12.3536C4.55268 12.2598 4.5 12.1326 4.5 12C4.5 11.8674 4.55268 11.7402 4.64645 11.6464C4.74021 11.5527 4.86739 11.5 5 11.5ZM12.648 4.5H7.352C7.01626 4.49998 6.69022 4.61259 6.42606 4.81982C6.1619 5.02705 5.97491 5.31691 5.895 5.643L5.405 7.643C5.35089 7.86384 5.34768 8.09408 5.39563 8.31634C5.44358 8.53859 5.54143 8.74704 5.68178 8.92592C5.82213 9.1048 6.00131 9.24943 6.20577 9.34889C6.41023 9.44834 6.63463 9.50002 6.862 9.5H13.138C13.3654 9.50002 13.5898 9.44834 13.7942 9.34889C13.9987 9.24943 14.1779 9.1048 14.3182 8.92592C14.4586 8.74704 14.5564 8.53859 14.6044 8.31634C14.6523 8.09408 14.6491 7.86384 14.595 7.643L14.105 5.643C14.0251 5.31674 13.8379 5.02676 13.5735 4.81951C13.3092 4.61227 12.9839 4.49975 12.648 4.5ZM6.866 5.881C6.89265 5.77225 6.95503 5.67559 7.04315 5.6065C7.13127 5.53742 7.24003 5.49992 7.352 5.5H12.648C12.7598 5.50014 12.8683 5.53775 12.9562 5.60681C13.0442 5.67588 13.1064 5.77241 13.133 5.881L13.623 7.881C13.641 7.95456 13.6421 8.03125 13.6262 8.10528C13.6102 8.17932 13.5777 8.24876 13.5309 8.30838C13.4842 8.36799 13.4246 8.41622 13.3565 8.44941C13.2885 8.48261 13.2137 8.4999 13.138 8.5H6.862C6.78618 8.50006 6.71135 8.48287 6.64315 8.44974C6.57495 8.41661 6.51518 8.3684 6.46836 8.30877C6.42154 8.24914 6.3889 8.17964 6.3729 8.10553C6.35689 8.03142 6.35796 7.95464 6.376 7.881L6.866 5.881Z" fill="black"/>
</svg>